# xmcd
#
# Track frame offsets:
#	183
#	12065
#	32240
#	46218
#	58933
#	67785
#	79410
#	100253
#	116055
#	141743
#	153910
#	168870
#	174320
#	191375
#	208678
#	217210
#	226253
#	233295
#
# Disc length: 3333
#
# Revision: 1
# Processed by: cddbd v1.5.1PL0 Copyright (c) Steve Scherf et al.
# Submitted via: dBpowerAMP V4.0
# Normalized: r0:TRMNUM
#
DISCID=f10d0312
DTITLE=Various Artist - Pays - de l'Est - Les plus belles musiques CD1
DYEAR=1995
DGENRE=National Folk
TTITLE0=Russie - La chanson Patriotique (Hymme Russe)
TTITLE1=Ukraine - Gopak
TTITLE2=Georgie - Souliko
TTITLE3=Daghestan - Air de veillee d'Arguiny
TTITLE4=Armenie - Noubar
TTITLE5=Cosaques - Marche Cosaque
TTITLE6=Moldavie - Les Tziganes arrivent
TTITLE7=Ukraine - L'oiseau sur la branche
TTITLE8=Russie - Le rocher sur la Volga
TTITLE9=Lithuanie - Kazokelis
TTITLE10=Georgie - Salamouri
TTITLE11=Kirgizie - Chant de la princesse Soulou Gong
TTITLE12=Cosaques - Chant de Cosaque Zaporogues
TTITLE13=Bielorussie - Suite de danse de Bielorussie
TTITLE14=Georgie - Douakarit
TTITLE15=Lithuanie - Isjos Broliukas
TTITLE16=Cosaques - Tri Kazaki
TTITLE17=Russie - Variague
EXTD=Album compressé en bitrate variable
EXTT0=
EXTT1=
EXTT2=
EXTT3=
EXTT4=
EXTT5=
EXTT6=
EXTT7=
EXTT8=
EXTT9=
EXTT10=
EXTT11=
EXTT12=
EXTT13=
EXTT14=
EXTT15=
EXTT16=
EXTT17=
PLAYORDER=
